<svg width="256" height="56" viewBox="0 0 256 56" fill="none" xmlns="http://www.w3.org/2000/svg">
<path d="M12.7112 6.32254L20.9195 5.21333L16.9817 23.7373C18.7565 23.5894 20.3833 22.8129 21.8623 21.4079C23.3782 20.0029 24.5614 18.2651 25.4118 16.1946C26.2622 14.124 26.6874 12.0905 26.6874 10.0939C26.6874 7.87545 26.1143 6.06373 24.9681 4.65872C23.8219 3.2537 22.1026 2.5512 19.8102 2.5512C15.2994 2.5512 11.7684 3.73437 9.2172 6.1007C6.70297 8.46703 5.44586 11.7762 5.44586 16.0282C5.44586 17.3962 5.57527 18.3576 5.83409 18.9122C6.0929 19.4298 6.22231 19.7256 6.22231 19.7995C4.22572 19.7995 2.72828 19.3928 1.72998 18.5794C0.768656 17.729 0.287994 16.3425 0.287994 14.4198C0.287994 12.0535 1.24932 9.76112 3.17196 7.54268C5.13158 5.28727 7.62732 3.47555 10.6592 2.10751C13.6911 0.702502 16.7229 -3.8147e-06 19.7548 -3.8147e-06C22.6757 -3.8147e-06 25.116 0.499145 27.0756 1.49744C29.0352 2.49574 30.4772 3.8268 31.4016 5.49063C32.3629 7.11748 32.8436 8.9292 32.8436 10.9258C32.8436 13.3291 32.178 15.677 30.847 17.9693C29.5529 20.2617 27.6857 22.1474 25.2454 23.6264C22.8051 25.0683 19.9951 25.7893 16.8153 25.7893H16.538L13.1549 41.5957H5.16855L12.7112 6.32254Z" fill="#1d2534"/>
<path d="M34.0066 41.9285C32.2318 41.9285 30.7344 41.5957 29.5142 40.9302C28.2941 40.2277 27.3882 39.3403 26.7967 38.268C26.2051 37.1588 25.9093 36.0126 25.9093 34.8295C25.9093 33.6093 26.2051 32.5556 26.7967 31.6682C27.3513 30.7438 28.0353 30.0783 28.8487 29.6716C30.2907 27.0834 31.5478 24.4768 32.62 21.8516C33.6923 19.1895 34.7091 16.324 35.6704 13.2552L43.8786 12.1459C44.0635 16.8786 44.3778 21.9995 44.8215 27.5086C45.0063 29.7271 45.0988 31.3354 45.0988 32.3337C45.0988 33.1841 45.0248 33.8866 44.8769 34.4412C46.6147 33.4429 47.9457 32.5186 48.8701 31.6682H51.1995C48.8331 34.4043 46.0046 36.7151 42.7139 38.6008C41.6417 39.747 40.3106 40.5974 38.7207 41.152C37.1678 41.6696 35.5964 41.9285 34.0066 41.9285ZM32.2318 37.547C33.5999 37.547 34.746 37.1403 35.6704 36.3269C36.5947 35.5135 37.0569 34.2009 37.0569 32.3892C37.0569 31.28 36.946 29.7271 36.7242 27.7305C36.3544 23.5154 36.1141 20.6869 36.0032 19.2449C35.1158 22.1659 33.6183 25.6599 31.5108 29.7271C32.3612 30.1707 32.7864 30.8178 32.7864 31.6682C32.7864 32.3707 32.5461 32.9992 32.0654 33.5539C31.6217 34.1085 31.0487 34.3858 30.3461 34.3858C29.5697 34.3858 29.0705 34.1454 28.8487 33.6648C28.8487 34.9958 29.1075 35.9756 29.6252 36.6042C30.1798 37.2328 31.0487 37.547 32.2318 37.547Z" fill="#1d2534"/>
<path d="M56.7919 41.9285C54.0558 41.9285 51.9298 41.226 50.4139 39.8209C48.898 38.379 48.14 36.142 48.14 33.1102C48.14 30.559 48.6392 27.7489 49.6374 24.6801C50.6357 21.6113 52.2626 18.9676 54.518 16.7492C56.7734 14.4938 59.6389 13.3661 63.1145 13.3661C67.1816 13.3661 69.2152 15.1408 69.2152 18.6903C69.2152 20.7609 68.6236 22.665 67.4404 24.4028C66.2572 26.1406 64.6858 27.5456 62.7262 28.6178C60.7666 29.6531 58.6776 30.2447 56.4591 30.3926C56.3852 31.5018 56.3482 32.2413 56.3482 32.611C56.3482 34.4227 56.6625 35.6614 57.2911 36.3269C57.9196 36.9555 58.9364 37.2697 60.3414 37.2697C62.338 37.2697 64.0388 36.8076 65.4438 35.8832C66.8858 34.9589 68.4572 33.5539 70.158 31.6682H72.0437C67.9396 38.5084 62.8556 41.9285 56.7919 41.9285ZM56.9028 27.7305C58.2709 27.6565 59.565 27.1759 60.7851 26.2885C62.0422 25.4011 63.0405 24.2734 63.78 22.9054C64.5564 21.5373 64.9447 20.0953 64.9447 18.5794C64.9447 17.0635 64.4825 16.3055 63.5581 16.3055C62.2271 16.3055 60.9145 17.4702 59.6204 19.7995C58.3633 22.1289 57.4574 24.7725 56.9028 27.7305Z" fill="#1d2534"/>
<path d="M75.6369 41.9285C73.8622 41.9285 72.4202 41.3738 71.311 40.2646C70.2387 39.1554 69.7026 37.4916 69.7026 35.2731C69.7026 34.3488 69.8505 33.1471 70.1463 31.6682L73.9176 13.8652H81.904L77.9108 32.7219C77.7999 33.2766 77.7444 33.7942 77.7444 34.2749C77.7444 35.7908 78.299 36.5487 79.4083 36.5487C80.4435 36.5487 81.3309 36.1235 82.0704 35.2731C82.8099 34.3858 83.4015 33.1841 83.8451 31.6682L87.6165 13.8652H95.6029L91.6097 32.7219C91.4618 33.2766 91.3878 33.8681 91.3878 34.4967C91.3878 35.2362 91.5542 35.7723 91.887 36.1051C92.2567 36.4008 92.8483 36.5487 93.6617 36.5487C94.697 36.5487 95.5844 36.1051 96.3239 35.2177C97.1003 34.3303 97.7104 33.1471 98.1541 31.6682H100.483C99.1154 35.6614 97.4146 38.379 95.381 39.8209C93.3844 41.226 91.3693 41.9285 89.3358 41.9285C87.7459 41.9285 86.4703 41.4848 85.509 40.5974C84.5846 39.71 84.03 38.3974 83.8451 36.6597C82.588 38.6932 81.257 40.0798 79.852 40.8192C78.4839 41.5587 77.0789 41.9285 75.6369 41.9285Z" fill="#1d2534"/>
<path d="M104.803 41.9285C102.695 41.9285 100.939 41.2075 99.5341 39.7655C98.1291 38.3235 97.4266 36.0681 97.4266 32.9992C97.4266 30.2632 97.9627 27.3977 99.0349 24.4028C100.144 21.3709 101.771 18.8197 103.915 16.7492C106.097 14.6417 108.685 13.5879 111.68 13.5879C113.196 13.5879 114.324 13.8467 115.063 14.3644C115.803 14.882 116.172 15.566 116.172 16.4164V16.6383L118.89 3.88226L127.098 2.77304L120.72 32.7219C120.572 33.2766 120.498 33.8681 120.498 34.4967C120.498 35.2362 120.665 35.7723 120.997 36.1051C121.367 36.4008 121.959 36.5487 122.772 36.5487C123.807 36.5487 124.695 36.1051 125.434 35.2177C126.211 34.3303 126.821 33.1471 127.265 31.6682H129.594C127.338 38.2865 123.623 41.5957 118.446 41.5957C116.93 41.5957 115.692 41.189 114.73 40.3755C113.806 39.5621 113.233 38.379 113.011 36.8261C112.05 38.305 110.885 39.5251 109.517 40.4865C108.186 41.4478 106.615 41.9285 104.803 41.9285ZM108.408 36.5487C109.295 36.5487 110.183 36.142 111.07 35.3286C111.994 34.5152 112.623 33.3875 112.956 31.9455V31.6682L115.673 18.9676C115.34 17.6735 114.582 17.0265 113.399 17.0265C111.92 17.0265 110.589 17.8954 109.406 19.6332C108.223 21.334 107.299 23.4045 106.633 25.8448C105.968 28.2481 105.635 30.3741 105.635 32.2228C105.635 34.0715 105.894 35.2547 106.411 35.7723C106.966 36.2899 107.631 36.5487 108.408 36.5487Z" fill="#1d2534"/>
<path d="M135.384 41.8175C132.647 41.8175 130.484 41.115 128.895 39.71C127.305 38.305 126.51 36.0866 126.51 33.0547C126.51 30.5035 127.009 27.712 128.007 24.6801C129.005 21.6113 130.632 18.9676 132.888 16.7492C135.143 14.4938 138.027 13.3661 141.54 13.3661C145.903 13.3661 148.25 15.8618 148.583 20.8533C149.397 20.6684 150.118 20.2247 150.746 19.5222C151.375 18.7828 151.966 17.9508 152.521 17.0265H154.296C153.297 19.0231 152.41 20.5945 151.634 21.7407C150.857 22.8499 149.84 23.7558 148.583 24.4583C148.361 27.9338 147.64 30.9842 146.42 33.6093C145.237 36.2345 143.684 38.268 141.762 39.71C139.839 41.115 137.713 41.8175 135.384 41.8175ZM137.602 36.8261C138.97 36.8261 140.246 35.7168 141.429 33.4984C142.612 31.28 143.425 28.5439 143.869 25.2902C142.982 24.9574 142.538 24.1255 142.538 22.7944C142.538 21.3525 143.056 20.3911 144.091 19.9105C144.017 18.7273 143.814 17.9139 143.481 17.4702C143.185 16.9895 142.686 16.7492 141.983 16.7492C140.763 16.7492 139.599 17.6366 138.489 19.4113C137.38 21.1491 136.474 23.2751 135.772 25.7893C135.106 28.2666 134.773 30.448 134.773 32.3337C134.773 34.1085 134.977 35.3101 135.384 35.9387C135.79 36.5303 136.53 36.8261 137.602 36.8261Z" fill="#1d2534"/>
<path d="M185.785 55.4609C184.121 55.4609 182.475 54.9803 180.849 54.0189C179.259 53.0946 177.225 51.6526 174.748 49.693C172.899 48.214 171.309 47.0124 169.978 46.088C168.684 45.2007 167.261 44.4427 165.708 43.8141C164.192 43.1856 162.639 42.8713 161.049 42.8713C160.494 42.8713 160.069 42.8898 159.773 42.9268L168.037 4.49233C165.56 5.49063 163.637 7.02505 162.269 9.09559C160.938 11.1292 160.273 13.6249 160.273 16.5828C160.273 17.9508 160.402 18.9122 160.661 19.4668C160.92 19.9844 161.049 20.2802 161.049 20.3542C159.052 20.3542 157.555 19.9474 156.557 19.134C155.595 18.2836 155.115 16.8971 155.115 14.9744C155.115 12.6081 156.076 10.3157 157.999 8.09729C159.958 5.84188 162.454 4.03016 165.486 2.66212C168.518 1.25711 171.55 0.554608 174.582 0.554608C175.099 0.554608 175.839 0.591582 176.8 0.665529L168.259 40.4865C169.294 40.7453 170.348 41.115 171.42 41.5957C172.529 42.1133 173.861 42.7973 175.413 43.6477C177.817 44.9418 179.869 45.9216 181.57 46.5872C183.27 47.2897 185.045 47.6409 186.894 47.6409C188.558 47.6409 190.111 47.3451 191.553 46.7536C191.257 49.4527 190.591 51.5787 189.556 53.1316C188.558 54.6845 187.301 55.4609 185.785 55.4609Z" fill="#1d2534"/>
<path d="M183.894 41.8175C181.158 41.8175 178.995 41.115 177.405 39.71C175.815 38.305 175.02 36.0866 175.02 33.0547C175.02 30.5405 175.538 27.7489 176.573 24.6801C177.608 21.6113 179.272 18.9676 181.564 16.7492C183.857 14.4938 186.741 13.3661 190.216 13.3661C194.949 13.3661 197.315 16.324 197.315 22.2398V22.2953C197.426 22.3323 197.63 22.3507 197.925 22.3507C199.145 22.3507 200.551 22.0365 202.14 21.4079C203.73 20.7424 205.172 19.9474 206.466 19.0231L206.965 20.5205C205.893 21.6667 204.488 22.6465 202.75 23.46C201.05 24.2364 199.182 24.791 197.149 25.1238C196.853 28.4884 196.095 31.4279 194.875 33.9421C193.655 36.4563 192.083 38.3974 190.161 39.7655C188.238 41.1335 186.149 41.8175 183.894 41.8175ZM186.112 36.8261C187 36.8261 187.887 36.3269 188.774 35.3286C189.662 34.2933 190.438 32.9068 191.104 31.169C191.769 29.3943 192.25 27.4347 192.546 25.2902C191.547 25.0683 191.048 24.2919 191.048 22.9608C191.048 21.4449 191.621 20.4466 192.767 19.9659C192.694 18.7458 192.509 17.9139 192.213 17.4702C191.917 16.9895 191.399 16.7492 190.66 16.7492C189.44 16.7492 188.257 17.6366 187.11 19.4113C185.964 21.1861 185.04 23.3121 184.337 25.7893C183.635 28.2666 183.284 30.448 183.284 32.3337C183.284 34.1085 183.487 35.3101 183.894 35.9387C184.3 36.5303 185.04 36.8261 186.112 36.8261Z" fill="#1d2534"/>
<path d="M209.986 55.4609C208.211 55.4609 206.732 54.9987 205.549 54.0744C204.365 53.1501 203.774 51.819 203.774 50.0812C203.774 47.9737 204.624 46.2729 206.325 44.9788C208.026 43.7217 210.189 42.6679 212.814 41.8175L213.48 38.8781C211.594 40.9117 209.375 41.9285 206.824 41.9285C204.717 41.9285 202.96 41.2075 201.555 39.7655C200.15 38.3235 199.448 36.0681 199.448 32.9992C199.448 30.2632 199.984 27.3977 201.056 24.4028C202.166 21.3709 203.792 18.8197 205.937 16.7492C208.118 14.6417 210.707 13.5879 213.701 13.5879C215.217 13.5879 216.345 13.8467 217.085 14.3644C217.824 14.882 218.194 15.566 218.194 16.4164V16.7492L218.804 13.8652H226.79L221.3 39.5991C223.074 39.0075 224.498 38.1201 225.57 36.937C226.642 35.7538 227.548 33.9975 228.288 31.6682H230.617C229.619 34.9589 228.269 37.3807 226.568 38.9336C224.868 40.4495 222.945 41.4848 220.8 42.0394L219.968 46.0326C219.229 49.619 217.953 52.0778 216.142 53.4089C214.33 54.7769 212.278 55.4609 209.986 55.4609ZM210.429 36.5487C211.28 36.5487 212.149 36.1605 213.036 35.3841C213.923 34.6076 214.533 33.5539 214.866 32.2228L217.695 19.0786C217.695 18.6349 217.51 18.1912 217.14 17.7475C216.77 17.2668 216.197 17.0265 215.421 17.0265C213.942 17.0265 212.611 17.8954 211.427 19.6332C210.244 21.334 209.32 23.4045 208.654 25.8448C207.989 28.2481 207.656 30.3741 207.656 32.2228C207.656 34.0715 207.915 35.2547 208.433 35.7723C208.987 36.2899 209.653 36.5487 210.429 36.5487ZM208.71 51.135C209.338 51.135 209.949 50.7098 210.54 49.8594C211.132 49.009 211.594 47.7888 211.927 46.1989L212.259 44.5906C208.636 45.9216 206.824 47.493 206.824 49.3048C206.824 49.7854 206.991 50.2106 207.323 50.5804C207.656 50.9501 208.118 51.135 208.71 51.135Z" fill="#1d2534"/>
<path d="M236.376 41.8175C233.64 41.8175 231.477 41.115 229.887 39.71C228.297 38.305 227.502 36.0866 227.502 33.0547C227.502 30.5035 228.001 27.712 229 24.6801C229.998 21.6113 231.625 18.9676 233.88 16.7492C236.135 14.4938 239.019 13.3661 242.532 13.3661C246.895 13.3661 249.243 15.8618 249.576 20.8533C250.389 20.6684 251.11 20.2247 251.738 19.5222C252.367 18.7828 252.959 17.9508 253.513 17.0265H255.288C254.29 19.0231 253.402 20.5945 252.626 21.7407C251.849 22.8499 250.833 23.7558 249.576 24.4583C249.354 27.9338 248.633 30.9842 247.413 33.6093C246.229 36.2345 244.676 38.268 242.754 39.71C240.831 41.115 238.705 41.8175 236.376 41.8175ZM238.594 36.8261C239.962 36.8261 241.238 35.7168 242.421 33.4984C243.604 31.28 244.418 28.5439 244.861 25.2902C243.974 24.9574 243.53 24.1255 243.53 22.7944C243.53 21.3525 244.048 20.3911 245.083 19.9105C245.009 18.7273 244.806 17.9139 244.473 17.4702C244.177 16.9895 243.678 16.7492 242.976 16.7492C241.756 16.7492 240.591 17.6366 239.482 19.4113C238.372 21.1491 237.467 23.2751 236.764 25.7893C236.099 28.2666 235.766 30.448 235.766 32.3337C235.766 34.1085 235.969 35.3101 236.376 35.9387C236.783 36.5303 237.522 36.8261 238.594 36.8261Z" fill="#1d2534"/>
</svg>
