<svg width="32" height="32" viewBox="0 0 32 32" fill="none" xmlns="http://www.w3.org/2000/svg">
<g clip-path="url(#clip0_2008_2)">
<path d="M25.266 15.306C25.266 13.61 24.656 12.436 24.134 11.522L23.974 11.262C23.34 10.242 22.786 9.346 22.786 8.302C22.786 7.042 23.742 5.866 25.09 5.866C25.13 5.866 25.1687 5.868 25.206 5.872L25.268 5.878C22.7401 3.55661 19.432 2.27022 16 2.274C13.7255 2.27372 11.4866 2.83892 9.48479 3.91874C7.48295 4.99855 5.78098 6.55911 4.532 8.46C4.852 8.47 5.158 8.47799 5.416 8.47799C6.85 8.47799 9.072 8.304 9.072 8.304C9.812 8.26 9.9 9.346 9.16 9.434C9.16 9.434 8.418 9.522 7.59 9.564L12.59 24.432L15.59 15.42L13.45 9.562C12.712 9.518 12.012 9.432 12.012 9.432C11.272 9.388 11.36 8.256 12.098 8.3C12.098 8.3 14.366 8.474 15.714 8.474C17.15 8.474 19.374 8.3 19.374 8.3C20.114 8.256 20.2 9.344 19.46 9.432C19.46 9.432 18.716 9.518 17.89 9.562L22.85 24.316L24.218 19.742L24.326 19.396C24.866 17.676 25.264 16.406 25.264 15.304L25.266 15.306ZM2.274 16C2.27292 18.5777 2.99803 21.1035 4.36623 23.2881C5.73444 25.4728 7.6904 27.2277 10.01 28.352L3.46 10.412C2.67352 12.1697 2.26927 14.0744 2.274 16Z" fill="black"/>
<path d="M12.122 29.166L16.242 17.2L20.46 28.76C20.4867 28.8267 20.5193 28.8893 20.558 28.948C17.839 29.9065 14.8869 29.9828 12.122 29.166ZM28.042 9.414C28.1033 9.85133 28.1347 10.322 28.136 10.826C28.136 12.218 27.876 13.784 27.092 15.742L22.9 27.862C25.9934 26.0647 28.2625 23.1302 29.2234 19.684C30.1843 16.2379 29.7611 12.5526 28.044 9.414H28.042Z" fill="black"/>
<path fill-rule="evenodd" clip-rule="evenodd" d="M0 16C0 7.178 7.178 0 16 0C24.822 0 32 7.178 32 16C32 24.822 24.82 32 16 32C7.18 32 0 24.822 0 16ZM0.734 16C0.734 24.418 7.582 31.266 16 31.266C24.418 31.266 31.264 24.418 31.264 16C31.264 7.58 24.416 0.734 16 0.734C7.58 0.734 0.734 7.58 0.734 16Z" fill="black"/>
</g>
<defs>
<clipPath id="clip0_2008_2">
<rect width="32" height="32" fill="white"/>
</clipPath>
</defs>
</svg>
