<svg width="512" height="512" viewBox="0 0 512 512" fill="none" xmlns="http://www.w3.org/2000/svg">
<g clip-path="url(#clip0_2005_2)">
<path d="M404.256 244.896C404.256 217.76 394.496 198.976 386.144 184.352L383.584 180.192C373.44 163.872 364.576 149.536 364.576 132.832C364.576 112.672 379.872 93.856 401.44 93.856C402.08 93.856 402.699 93.888 403.296 93.952L404.288 94.048C363.842 56.9059 310.913 36.3235 256 36.384C219.608 36.3796 183.786 45.4228 151.757 62.6999C119.727 79.9769 92.4957 104.946 72.512 135.36C77.632 135.52 82.528 135.648 86.656 135.648C109.6 135.648 145.152 132.864 145.152 132.864C156.992 132.16 158.4 149.536 146.56 150.944C146.56 150.944 134.688 152.352 121.44 153.024L201.44 390.912L249.44 246.72L215.2 152.992C203.392 152.288 192.192 150.912 192.192 150.912C180.352 150.208 181.76 132.096 193.568 132.8C193.568 132.8 229.856 135.584 251.424 135.584C274.4 135.584 309.984 132.8 309.984 132.8C321.824 132.096 323.2 149.504 311.36 150.912C311.36 150.912 299.456 152.288 286.24 152.992L365.6 389.056L387.488 315.872L389.216 310.336C397.856 282.816 404.224 262.496 404.224 244.864L404.256 244.896ZM36.384 256C36.3668 297.243 47.9685 337.657 69.8598 372.61C91.7511 407.564 123.046 435.644 160.16 453.632L55.36 166.592C42.7763 194.715 36.3083 225.19 36.384 256Z" fill="black"/>
<path d="M193.952 466.656L259.872 275.2L327.36 460.16C327.787 461.227 328.309 462.229 328.928 463.168C285.424 478.504 238.19 479.724 193.952 466.656ZM448.672 150.624C449.653 157.621 450.155 165.152 450.176 173.216C450.176 195.488 446.016 220.544 433.472 251.872L366.4 445.792C415.895 417.035 452.199 370.083 467.574 314.944C482.949 259.806 476.178 200.842 448.704 150.624H448.672Z" fill="black"/>
<path fill-rule="evenodd" clip-rule="evenodd" d="M0 256C0 114.848 114.848 0 256 0C397.152 0 512 114.848 512 256C512 397.152 397.12 512 256 512C114.88 512 0 397.152 0 256ZM11.744 256C11.744 390.688 121.312 500.256 256 500.256C390.688 500.256 500.224 390.688 500.224 256C500.224 121.28 390.656 11.744 256 11.744C121.28 11.744 11.744 121.28 11.744 256Z" fill="black"/>
</g>
<defs>
<clipPath id="clip0_2005_2">
<rect width="512" height="512" fill="white"/>
</clipPath>
</defs>
</svg>
